<?xml version="1.0"?>
<svg width="144" height="144" xmlns="http://www.w3.org/2000/svg" xmlns:svg="http://www.w3.org/2000/svg" version="1.1">
 <g class="layer" id="Layer_1">
  <title>Layer 1</title>
  <path d="m16.76,0.81l0,-0.8l0.84,0l0,2.39l0.84,0l0,-0.8l0.84,0l0,-1.59l0.84,0l0,1.59l0.84,0l0,1.59l1.68,0l0,0.8l4.2,0l0,0.8l0.84,0l0,-0.8l0.84,0l0,-0.8l0.84,0l0,0.8l0.84,0l0,0.8l-0.84,0l0,1.59l5.04,0l0,0.8l2.52,0l0,0.8l0.84,0l0,-0.8l0.84,0l0,0.8l1.68,0l0,-0.8l1.68,0l0,1.59l1.68,0l0,-0.8l0.84,0l0,0.8l2.52,0l0,0.8l2.52,0l0,-0.8l0.84,0l0,1.59l2.52,0l0,-0.8l0.84,0l0,0.8l2.52,0l0,-0.8l0.84,0l0,0.8l0.84,0l0,-0.8l0.84,0l0,-0.8l0.84,0l0,1.59l0.84,0l0,0.8l0.84,0l0,-1.59l0.84,0l0,1.59l1.68,0l0,-0.8l2.52,0l0,0.8l1.68,0l0,-0.8l0.84,0l0,0.8l1.68,0l0,-0.8l0.84,0l0,0.8l1.68,0l0,-0.8l0.84,0l0,0.8l1.68,0l0,-0.8l0.84,0l0,0.8l1.68,0l0,-1.59l0.84,0l0,0.8l0.84,0l0,-0.8l0.84,0l0,0.8l0.84,0l0,0.8l2.52,0l0,-0.8l0.84,0l0,-1.59l0.84,0l0,0.8l0.84,0l0,0.8l3.36,0l0,-0.8l0.84,0l0,0.8l0.84,0l0,-0.8l0.84,0l0,0.8l2.52,0l0,-0.8l-0.84,0l0,-0.8l2.52,0l0,0.8l1.68,0l0,-0.8l4.2,0l0,-0.8l0.84,0l0,-0.8l0.84,0l0,0.8l3.36,0l0,-0.8l0.84,0l0,-1.59l0.84,0l0,-1.59l1.68,0l0,0.8l0.84,0l0,0.8l0.84,0l0,0.8l2.52,0l0,-0.8l1.68,0l0,-0.8l0.84,0l0,-0.8l1.68,0l0,-0.8l0.84,0l0,0.8l1.68,0l0,-2.39l0.84,0l0,1.59l0.84,0l0,-0.8l0.84,0l0,-0.8l0.84,0l0,0.8l1.68,0l0,-0.8l0.84,0l0,-1.59l0.84,0l0,0.8l0.84,0l0,-0.8l2.52,0l0,1.59l0.84,0l0,0.8l-0.84,0l0,0.8l-0.84,0l0,1.59l-0.84,0l0,5.57l-0.84,0l0,0.8l-3.36,0l0,1.59l-0.84,0l0,1.59l-0.84,0l0,0.8l-1.68,0l0,1.59l-0.84,0l0,0.8l-0.84,0l0,0.8l-0.84,0l0,1.59l-0.84,0l0,0.8l-1.68,0l0,0.8l0.84,0l0,0.8l-1.68,0l0,0.8l-0.84,0l0,1.59l-1.68,0l0,0.8l-0.84,0l0,0.8l-1.68,0l0,3.98l-0.84,0l0,-1.59l-1.68,0l0,0.8l-0.84,0l0,0.8l-0.84,0l0,0.8l-0.84,0l0,0.8l-1.68,0l0,0.8l-0.84,0l0,0.8l-0.84,0l0,1.59l-0.84,0l0,-0.8l-0.84,0l0,0.8l-0.84,0l0,0.8l-1.68,0l0,0.8l-1.68,0l0,0.8l-0.84,0l0,0.8l-2.52,0l0,0.8l-0.84,0l0,1.59l-0.84,0l0,-0.8l-1.68,0l0,0.8l0.84,0l0,0.8l-1.68,0l0,-0.8l-0.84,0l0,0.8l-1.68,0l0,2.39l0.84,0l0,-0.8l0.84,0l0,0.8l0.84,0l0,-0.8l0.84,0l0,0.8l1.68,0l0,0.8l-0.84,0l0,0.8l1.68,0l0,0.8l0.84,0l0,0.8l0.84,0l0,-0.8l0.84,0l0,1.59l0.84,0l0,-1.59l0.84,0l0,1.59l0.84,0l0,1.59l0.84,0l0,0.8l0.84,0l0,-0.8l1.68,0l0,0.8l-0.84,0l0,0.8l1.68,0l0,0.8l0.84,0l0,0.8l1.68,0l0,0.8l1.68,0l0,1.59l0.84,0l0,-0.8l2.52,0l0,0.8l-0.84,0l0,0.8l0.84,0l0,0.8l0.84,0l0,0.8l0.84,0l0,1.59l1.68,0l0,0.8l0.84,0l0,0.8l-0.84,0l0,4.77l-1.68,0l0,3.98l-0.84,0l0,-1.59l-0.84,0l0,1.59l-0.84,0l0,0.8l-1.68,0l0,1.59l-0.84,0l0,0.8l-0.84,0l0,0.8l-0.84,0l0,0.8l-0.84,0l0,0.8l-0.84,0l0,1.59l-0.84,0l0,1.59l-1.68,0l0,0.8l-1.68,0l0,2.39l-1.68,0l0,0.8l-0.84,0l0,0.8l-0.84,0l0,0.8l-0.84,0l0,-0.8l-2.52,0l0,0.8l-0.84,0l0,-1.59l-0.84,0l0,-0.8l-1.68,0l0,-0.8l-0.84,0l0,3.18l-0.84,0l0,0.8l0.84,0l0,0.8l-0.84,0l0,3.18l0.84,0l0,0.8l-0.84,0l0,0.8l1.68,0l0,0.8l-2.52,0l0,6.36l1.68,0l0,0.8l-1.68,0l0,2.39l0.84,0l0,0.8l-0.84,0l0,3.18l0.84,0l0,1.59l-0.84,0l0,0.8l0.84,0l0,0.8l-0.84,0l0,0.8l0.84,0l0,1.59l-0.84,0l0,4.77l0.84,0l0,0.8l-0.84,0l0,6.36l0.84,0l0,0.8l-0.84,0l0,2.39l0.84,0l0,2.39l-0.84,0l0,3.98l0.84,0l0,0.8l-0.84,0l0,7.95l-0.84,0l0,0.8l0.84,0l0,2.39l-0.84,0l0,-1.59l-0.84,0l0,0.8l-1.68,0l0,0.8l-8.4,0l0,-0.8l0.84,0l0,-0.8l-1.68,0l0,-1.59l-0.84,0l0,-1.59l-1.68,0l0,-1.59l0.84,0l0,0.8l0.84,0l0,-1.59l-2.52,0l0,3.18l0.84,0l0,0.8l-0.84,0l0,0.8l-0.84,0l0,0.8l-0.84,0l0,0.8l-0.84,0l0,0.8l-8.4,0l0,-1.59l-0.84,0l0,1.59l-0.84,0l0,-0.8l-0.84,0l0,0.8l-0.84,0l0,-1.59l1.68,0l0,-0.8l-2.52,0l0,-0.8l0.84,0l0,-0.8l0.84,0l0,-0.8l-1.68,0l0,-0.8l0.84,0l0,-0.8l0.84,0l0,-0.8l-0.84,0l0,-1.59l0.84,0l0,-3.18l-1.68,0l0,-0.8l1.68,0l0,-1.59l-0.84,0l0,-0.8l0.84,0l0,-4.77l-0.84,0l0,-0.8l0.84,0l0,-3.98l-0.84,0l0,-1.59l0.84,0l0,-0.8l-0.84,0l0,-0.8l0.84,0l0,-4.77l-0.84,0l0,-0.8l0.84,0l0,-7.16l-0.84,0l0,-0.8l0.84,0l0,-3.98l-0.84,0l0,-0.8l0.84,0l0,-1.59l-0.84,0l0,-0.8l0.84,0l0,-1.59l-0.84,0l0,-0.8l0.84,0l0,-1.59l-1.68,0l0,-0.8l1.68,0l0,-1.59l-0.84,0l0,-0.8l-0.84,0l0,-0.8l0.84,0l0,-2.39l-0.84,0l0,-3.18l-1.68,0l0,0.8l-1.68,0l0,0.8l-5.04,0l0,-0.8l-0.84,0l0,-0.8l-0.84,0l0,-0.8l-0.84,0l0,1.59l-0.84,0l0,-3.18l-0.84,0l0,-1.59l-0.84,0l0,0.8l-0.84,0l0,-0.8l-0.84,0l0,-0.8l0.84,0l0,-0.8l-0.84,0l0,-0.8l-1.68,0l0,-0.8l-0.84,0l0,-1.59l-0.84,0l0,-1.59l-2.52,0l0,-2.39l-0.84,0l0,-0.8l-0.84,0l0,-0.8l-1.68,0l0,-1.59l-0.84,0l0,-6.36l0.84,0l0,-0.8l0.84,0l0,-1.59l2.52,0l0,-0.8l0.84,0l0,-0.8l-0.84,0l0,-0.8l1.68,0l0,0.8l0.84,0l0,-0.8l0.84,0l0,-0.8l0.84,0l0,-1.59l0.84,0l0,0.8l1.68,0l0,-1.59l1.68,0l0,-1.59l2.52,0l0,-0.8l1.68,0l0,-1.59l1.68,0l0,-0.8l1.68,0l0,-0.8l1.68,0l0,-1.59l3.36,0l0,-0.8l0.84,0l0,0.8l0.84,0l0,-2.39l-1.68,0l0,-0.8l-2.52,0l0,-0.8l-0.84,0l0,0.8l-0.84,0l0,-1.59l-0.84,0l0,0.8l-0.84,0l0,-1.59l-1.68,0l0,0.8l-0.84,0l0,-1.59l-0.84,0l0,-0.8l-0.84,0l0,-0.8l-1.68,0l0,1.59l-2.52,0l0,-1.59l0.84,0l0,0.8l0.84,0l0,-1.59l-0.84,0l0,-0.8l-1.68,0l0,-1.59l-1.68,0l0,-0.8l-0.84,0l0,-0.8l-0.84,0l0,-0.8l-1.68,0l0,0.8l-2.52,0l0,-0.8l0.84,0l0,-2.39l-1.68,0l0,-1.59l-1.68,0l0,-0.8l-0.84,0l0,-0.8l-0.84,0l0,-1.59l-0.84,0l0,-0.8l-0.84,0l0,0.8l-0.84,0l0,-0.8l-0.84,0l0,-2.39l-0.84,0l0,-1.59l-1.68,0l0,-1.59l-0.84,0l0,-0.8l-1.68,0l0,-1.59l-0.84,0l0,-1.59l-0.84,0l0,0.8l-1.68,0l0,-0.8l0.84,0l0,-1.59l-0.84,0l0,-1.59l-0.84,0l0,2.39l-0.84,0l0,-3.18l0.84,0l0,-0.8l-0.84,0l0,-0.8l-0.84,0l0,-2.39l-1.68,0l0,-2.39l-0.84,0l5.04,-1.59zm10.92,3.98l0,0.8l0.84,0l0,-0.8l-0.84,0zm82.35,0.8l0,0.8l1.68,0l0,-0.8l-1.68,0zm18.49,1.59l0,0.8l0.84,0l0,-0.8l-0.84,0zm0,1.59l0,0.8l-0.84,0l0,0.8l1.68,0l0,-1.59l-0.84,0zm-59.66,11.93l0,0.8l-1.68,0l0,0.8l-1.68,0l0,0.8l-0.84,0l0,1.59l-1.68,0l0,0.8l0.84,0l0,1.59l-0.84,0l0,-0.8l-0.84,0l0,1.59l0.84,0l0,0.8l-1.68,0l0,3.98l0.84,0l0,2.39l0.84,0l0,0.8l0.84,0l0,1.59l0.84,0l0,0.8l1.68,0l0,0.8l1.68,0l0,0.8l0.84,0l0,0.8l1.68,0l0,-0.8l0.84,0l0,0.8l1.68,0l0,-0.8l2.52,0l0,-0.8l2.52,0l0,-0.8l0.84,0l0,-0.8l0.84,0l0,-2.39l0.84,0l0,-0.8l1.68,0l0,-3.98l-0.84,0l0,-0.8l0.84,0l0,-0.8l-0.84,0l0,-0.8l0.84,0l0,-0.8l-1.68,0l0,-1.59l-1.68,0l0,-0.8l0.84,0l0,-0.8l-0.84,0l0,-0.8l-0.84,0l0,-0.8l-2.52,0l0,1.59l-0.84,0l0,1.59l-1.68,0l0,0.8l-4.2,0l0,-0.8l-0.84,0l0,-3.18l1.68,0l0,-0.8l0.84,0l0,-0.8l-1.68,0zm2.52,0l0,0.8l-0.84,0l0,2.39l1.68,0l0,-3.18l-0.84,0zm-36.97,8.75l0,0.8l0.84,0l0,-0.8l-0.84,0zm23.53,12.73l0,0.8l0.84,0l0,0.8l0.84,0l0,-0.8l0.84,0l0,-0.8l-2.52,0zm25.21,0l0,1.59l0.84,0l0,-1.59l-0.84,0zm1.68,0l0,1.59l1.68,0l0,-1.59l-1.68,0zm-24.37,0.8l0,0.8l0.84,0l0,-0.8l-0.84,0zm1.68,0l0,0.8l1.68,0l0,-0.8l-1.68,0zm18.49,0l0,0.8l1.68,0l0,-0.8l-1.68,0zm-17.65,7.16l0,2.39l-0.84,0l0,0.8l-0.84,0l0,0.8l0.84,0l0,0.8l0.84,0l0,-0.8l0.84,0l1.68,0.8l0,1.59l2.52,0l0,0.8l-1.68,0l0,0.8l2.52,0l0,0.8l0.84,0l0,0.8l0.84,0l0,-1.59l0.84,0l0,2.39l1.68,0l0,-1.59l0.84,0l0,0.8l0.84,0l0,-0.8l1.68,0l0,-0.8l0.84,0l0,-0.8l0.84,0l0,-0.8l0.84,0l0,-1.59l0.84,0l0,0.8l0.84,0l0,-2.39l1.68,0l0,-0.8l-0.84,0l0,-1.59l-0.84,0l0,-0.8l-6.72,0l0,0.8l-0.84,0l0,-0.8l-1.68,0l0,0.8l-0.84,0l0,-0.8l-1.68,0l0,0.8l-0.84,0l0,-0.8l-2.52,0l0,0.8l-0.84,0l0,-0.8l-1.68,0zm1.68,4.77l0.84,0l-0.84,0zm16.81,-0.8l0,0.8l0.84,0l0,-0.8l-0.84,0zm-17.65,0.8l0,0.8l0.84,0l0,-0.8l-0.84,0zm-13.44,4.77l0,0.8l-0.84,0l0,0.8l-0.84,0l0,0.8l-1.68,0l0,2.39l0.84,0l0,1.59l0.84,0l0,0.8l1.68,0l0,1.59l0.84,0l0,-1.59l0.84,0l0,3.98l1.68,0l0,-0.8l-0.84,0l0,-7.16l-0.84,0l0,-2.39l-0.84,0l0,-0.8l-0.84,0zm41.17,0l0,5.57l-0.84,0l0,1.59l0.84,0l0,0.8l-0.84,0l0,1.59l1.68,0l0,-2.39l0.84,0l0,0.8l0.84,0l0,-0.8l0.84,0l0,-1.59l0.84,0l0,-2.39l0.84,0l0,-0.8l-0.84,0l0,-0.8l-1.68,0l0,-0.8l-0.84,0l0,-0.8l-1.68,0zm5.04,3.18l0,0.8l0.84,0l0,-0.8l-0.84,0zm-6.72,6.36l0,2.39l0.84,0l0,-0.8l0.84,0l0,-0.8l-0.84,0l0,-0.8l-0.84,0zm-18.49,22.27l0,0.8l-0.84,0l0,1.59l0.84,0l0,0.8l1.68,0l0,-2.39l-0.84,0l0,-0.8l-0.84,0zm-0.84,3.98l0,3.18l0.84,0l0,0.8l-0.84,0l0,1.59l0.84,0l0,1.59l1.68,0l0,-7.16l-2.52,0zm0,7.16l0,2.39l0.84,0l0,0.8l-0.84,0l0,2.39l0.84,0l0,1.59l-0.84,0l0,0.8l0.84,0l0,1.59l-0.84,0l0,2.39l0.84,0l0,1.59l1.68,0l0,-12.73l-1.68,0l0,-0.8l-0.84,0zm0,13.52l0,1.59l0.84,0l0,-1.59l-0.84,0zm1.68,0.8l0,0.8l-0.84,0l0,1.59l-0.84,0l0,2.39l0.84,0l0,0.8l-0.84,0l0,3.18l0.84,0l0,0.8l-0.84,0l0,8.75l0.84,0l0,-0.8l0.84,0l0,0.8l0.84,0l0,-3.98l-0.84,0l0,-0.8l-0.84,0l0,-0.8l1.68,0l0,-0.8l-1.68,0l0,-0.8l1.68,0l0,-3.18l-1.68,0l0,-0.8l1.68,0l0,-2.39l-0.84,0l0,-1.59l0.84,0l0,-3.18l-0.84,0z" fill="#F0991C" id="svg_1"/>
 </g>
</svg>