<svg width="144" height="180" xmlns="http://www.w3.org/2000/svg" version="1.1">
 <g id="Layer_1">
  <title>Layer 1</title>
  <path d="m6,1l0,-1l1,0l0,3l1,0l0,-1l1,0l0,-2l1,0l0,2l1,0l0,2l2,0l0,1l5,0l0,1l1,0l0,-1l1,0l0,-1l1,0l0,1l1,0l0,1l-1,0l0,2l6,0l0,1l3,0l0,1l1,0l0,-1l1,0l0,1l2,0l0,-1l2,0l0,2l2,0l0,-1l1,0l0,1l3,0l0,1l3,0l0,-1l1,0l0,2l3,0l0,-1l1,0l0,1l3,0l0,-1l1,0l0,1l1,0l0,-1l1,0l0,-1l1,0l0,2l1,0l0,1l1,0l0,-2l1,0l0,2l2,0l0,-1l3,0l0,1l2,0l0,-1l1,0l0,1l2,0l0,-1l1,0l0,1l2,0l0,-1l1,0l0,1l2,0l0,-1l1,0l0,1l2,0l0,-2l1,0l0,1l1,0l0,-1l1,0l0,1l1,0l0,1l3,0l0,-1l1,0l0,-2l1,0l0,1l1,0l0,1l4,0l0,-1l1,0l0,1l1,0l0,-1l1,0l0,1l3,0l0,-1l-1,0l0,-1l3,0l0,1l2,0l0,-1l5,0l0,-1l1,0l0,-1l1,0l0,1l4,0l0,-1l1,0l0,-2l1,0l0,-2l2,0l0,1l1,0l0,1l1,0l0,1l3,0l0,-1l2,0l0,-1l1,0l0,-1l2,0l0,-1l1,0l0,1l2,0l0,-3l1,0l0,2l1,0l0,-1l1,0l0,-1l1,0l0,1l2,0l0,-1l1,0l0,-2l1,0l0,1l1,0l0,-1l3,0l0,2l1,0l0,1l-1,0l0,1l-1,0l0,2l-1,0l0,7l-1,0l0,1l-4,0l0,2l-1,0l0,2l-1,0l0,1l-2,0l0,2l-1,0l0,1l-1,0l0,1l-1,0l0,2l-1,0l0,1l-2,0l0,1l1,0l0,1l-2,0l0,1l-1,0l0,2l-2,0l0,1l-1,0l0,1l-2,0l0,5l-1,0l0,-2l-2,0l0,1l-1,0l0,1l-1,0l0,1l-1,0l0,1l-2,0l0,1l-1,0l0,1l-1,0l0,2l-1,0l0,-1l-1,0l0,1l-1,0l0,1l-2,0l0,1l-2,0l0,1l-1,0l0,1l-3,0l0,1l-1,0l0,2l-1,0l0,-1l-2,0l0,1l1,0l0,1l-2,0l0,-1l-1,0l0,1l-2,0l0,3l1,0l0,-1l1,0l0,1l1,0l0,-1l1,0l0,1l2,0l0,1l-1,0l0,1l2,0l0,1l1,0l0,1l1,0l0,-1l1,0l0,2l1,0l0,-2l1,0l0,2l1,0l0,2l1,0l0,1l1,0l0,-1l2,0l0,1l-1,0l0,1l2,0l0,1l1,0l0,1l2,0l0,1l2,0l0,2l1,0l0,-1l3,0l0,1l-1,0l0,1l1,0l0,1l1,0l0,1l1,0l0,2l2,0l0,1l1,0l0,1l-1,0l0,6l-2,0l0,5l-1,0l0,-2l-1,0l0,2l-1,0l0,1l-2,0l0,2l-1,0l0,1l-1,0l0,1l-1,0l0,1l-1,0l0,1l-1,0l0,2l-1,0l0,2l-2,0l0,1l-2,0l0,3l-2,0l0,1l-1,0l0,1l-1,0l0,1l-1,0l0,-1l-3,0l0,1l-1,0l0,-2l-1,0l0,-1l-2,0l0,-1l-1,0l0,4l-1,0l0,1l1,0l0,1l-1,0l0,4l1,0l0,1l-1,0l0,1l2,0l0,1l-3,0l0,8l2,0l0,1l-2,0l0,3l1,0l0,1l-1,0l0,4l1,0l0,2l-1,0l0,1l1,0l0,1l-1,0l0,1l1,0l0,2l-1,0l0,6l1,0l0,1l-1,0l0,8l1,0l0,1l-1,0l0,3l1,0l0,3l-1,0l0,5l1,0l0,1l-1,0l0,10l-1,0l0,1l1,0l0,3l-1,0l0,-2l-1,0l0,1l-2,0l0,1l-10,0l0,-1l1,0l0,-1l-2,0l0,-2l-1,0l0,-2l-2,0l0,-2l1,0l0,1l1,0l0,-2l-3,0l0,4l1,0l0,1l-1,0l0,1l-1,0l0,1l-1,0l0,1l-1,0l0,1l-10,0l0,-2l-1,0l0,2l-1,0l0,-1l-1,0l0,1l-1,0l0,-2l2,0l0,-1l-3,0l0,-1l1,0l0,-1l1,0l0,-1l-2,0l0,-1l1,0l0,-1l1,0l0,-1l-1,0l0,-2l1,0l0,-4l-2,0l0,-1l2,0l0,-2l-1,0l0,-1l1,0l0,-6l-1,0l0,-1l1,0l0,-5l-1,0l0,-2l1,0l0,-1l-1,0l0,-1l1,0l0,-6l-1,0l0,-1l1,0l0,-9l-1,0l0,-1l1,0l0,-5l-1,0l0,-1l1,0l0,-2l-1,0l0,-1l1,0l0,-2l-1,0l0,-1l1,0l0,-2l-2,0l0,-1l2,0l0,-2l-1,0l0,-1l-1,0l0,-1l1,0l0,-3l-1,0l0,-4l-2,0l0,1l-2,0l0,1l-6,0l0,-1l-1,0l0,-1l-1,0l0,-1l-1,0l0,2l-1,0l0,-4l-1,0l0,-2l-1,0l0,1l-1,0l0,-1l-1,0l0,-1l1,0l0,-1l-1,0l0,-1l-2,0l0,-1l-1,0l0,-2l-1,0l0,-2l-3,0l0,-3l-1,0l0,-1l-1,0l0,-1l-2,0l0,-2l-1,0l0,-8l1,0l0,-1l1,0l0,-2l3,0l0,-1l1,0l0,-1l-1,0l0,-1l2,0l0,1l1,0l0,-1l1,0l0,-1l1,0l0,-2l1,0l0,1l2,0l0,-2l2,0l0,-2l3,0l0,-1l2,0l0,-2l2,0l0,-1l2,0l0,-1l2,0l0,-2l4,0l0,-1l1,0l0,1l1,0l0,-3l-2,0l0,-1l-3,0l0,-1l-1,0l0,1l-1,0l0,-2l-1,0l0,1l-1,0l0,-2l-2,0l0,1l-1,0l0,-2l-1,0l0,-1l-1,0l0,-1l-2,0l0,2l-3,0l0,-2l1,0l0,1l1,0l0,-2l-1,0l0,-1l-2,0l0,-2l-2,0l0,-1l-1,0l0,-1l-1,0l0,-1l-2,0l0,1l-3,0l0,-1l1,0l0,-3l-2,0l0,-2l-2,0l0,-1l-1,0l0,-1l-1,0l0,-2l-1,0l0,-1l-1,0l0,1l-1,0l0,-1l-1,0l0,-3l-1,0l0,-2l-2,0l0,-2l-1,0l0,-1l-2,0l0,-2l-1,0l0,-2l-1,0l0,1l-2,0l0,-1l1,0l0,-2l-1,0l0,-2l-1,0l0,3l-1,0l0,-4l1,0l0,-1l-1,0l0,-1l-1,0l0,-3l-2,0l0,-3l-1,0l6,-2zm13,5l0,1l1,0l0,-1l-1,0zm98,1l0,1l2,0l0,-1l-2,0zm22,2l0,1l1,0l0,-1l-1,0zm0,2l0,1l-1,0l0,1l2,0l0,-2l-1,0zm-71,15l0,1l-2,0l0,1l-2,0l0,1l-1,0l0,2l-2,0l0,1l1,0l0,2l-1,0l0,-1l-1,0l0,2l1,0l0,1l-2,0l0,5l1,0l0,3l1,0l0,1l1,0l0,2l1,0l0,1l2,0l0,1l2,0l0,1l1,0l0,1l2,0l0,-1l1,0l0,1l2,0l0,-1l3,0l0,-1l3,0l0,-1l1,0l0,-1l1,0l0,-3l1,0l0,-1l2,0l0,-5l-1,0l0,-1l1,0l0,-1l-1,0l0,-1l1,0l0,-1l-2,0l0,-2l-2,0l0,-1l1,0l0,-1l-1,0l0,-1l-1,0l0,-1l-3,0l0,2l-1,0l0,2l-2,0l0,1l-5,0l0,-1l-1,0l0,-4l2,0l0,-1l1,0l0,-1l-2,0zm3,0l0,1l-1,0l0,3l2,0l0,-4l-1,0zm-44,11l0,1l1,0l0,-1l-1,0zm28,16l0,1l1,0l0,1l1,0l0,-1l1,0l0,-1l-3,0zm30,0l0,2l1,0l0,-2l-1,0zm2,0l0,2l2,0l0,-2l-2,0zm-29,1l0,1l1,0l0,-1l-1,0zm2,0l0,1l2,0l0,-1l-2,0zm22,0l0,1l2,0l0,-1l-2,0zm-21,9l0,3l-1,0l0,1l-1,0l0,1l1,0l0,1l1,0l0,-1l1,0l2,1l0,2l3,0l0,1l-2,0l0,1l3,0l0,1l1,0l0,1l1,0l0,-2l1,0l0,3l2,0l0,-2l1,0l0,1l1,0l0,-1l2,0l0,-1l1,0l0,-1l1,0l0,-1l1,0l0,-2l1,0l0,1l1,0l0,-3l2,0l0,-1l-1,0l0,-2l-1,0l0,-1l-8,0l0,1l-1,0l0,-1l-2,0l0,1l-1,0l0,-1l-2,0l0,1l-1,0l0,-1l-3,0l0,1l-1,0l0,-1l-2,0zm2,6l1,0l-1,0zm20,-1l0,1l1,0l0,-1l-1,0zm-21,1l0,1l1,0l0,-1l-1,0zm-16,6l0,1l-1,0l0,1l-1,0l0,1l-2,0l0,3l1,0l0,2l1,0l0,1l2,0l0,2l1,0l0,-2l1,0l0,5l2,0l0,-1l-1,0l0,-9l-1,0l0,-3l-1,0l0,-1l-1,0zm49,0l0,7l-1,0l0,2l1,0l0,1l-1,0l0,2l2,0l0,-3l1,0l0,1l1,0l0,-1l1,0l0,-2l1,0l0,-3l1,0l0,-1l-1,0l0,-1l-2,0l0,-1l-1,0l0,-1l-2,0zm6,4l0,1l1,0l0,-1l-1,0zm-8,8l0,3l1,0l0,-1l1,0l0,-1l-1,0l0,-1l-1,0zm-22,28l0,1l-1,0l0,2l1,0l0,1l2,0l0,-3l-1,0l0,-1l-1,0zm-1,5l0,4l1,0l0,1l-1,0l0,2l1,0l0,2l2,0l0,-9l-3,0zm0,9l0,3l1,0l0,1l-1,0l0,3l1,0l0,2l-1,0l0,1l1,0l0,2l-1,0l0,3l1,0l0,2l2,0l0,-16l-2,0l0,-1l-1,0zm0,17l0,2l1,0l0,-2l-1,0zm2,1l0,1l-1,0l0,2l-1,0l0,3l1,0l0,1l-1,0l0,4l1,0l0,1l-1,0l0,11l1,0l0,-1l1,0l0,1l1,0l0,-5l-1,0l0,-1l-1,0l0,-1l2,0l0,-1l-2,0l0,-1l2,0l0,-4l-2,0l0,-1l2,0l0,-3l-1,0l0,-2l1,0l0,-4l-1,0z" fill="#F0991C" id="svg_1"/>
 </g>
</svg>